<?xml version="1.0" standalone="no"?>
<!DOCTYPE svg PUBLIC "-//W3C//DTD SVG 20010904//EN"
 "http://www.w3.org/TR/2001/REC-SVG-20010904/DTD/svg10.dtd">
<svg version="1.0" xmlns="http://www.w3.org/2000/svg"
 width="240.000000pt" height="200.000000pt" viewBox="0 0 240.000000 200.000000"
 preserveAspectRatio="xMidYMid meet">
<metadata>
Created by potrace 1.16, written by Peter Selinger 2001-2019
</metadata>
<g transform="translate(0.000000,200.000000) scale(0.100000,-0.100000)"
fill="#000000" stroke="none">
<path d="M1070 1491 c15 -29 12 -39 -5 -17 -15 19 -15 19 -15 -1 0 -31 -19
-38 -30 -11 -8 18 -8 16 -4 -14 5 -31 3 -38 -10 -38 -9 0 -26 16 -37 35 -12
19 -22 35 -22 35 -1 0 -2 -11 -2 -25 0 -14 5 -25 11 -25 7 0 14 -6 17 -14 6
-16 -30 -29 -39 -14 -3 5 -12 1 -19 -9 -12 -17 -14 -16 -20 10 -9 34 -24 36
-17 1 3 -19 0 -26 -16 -31 -11 -2 -23 -16 -26 -29 -4 -14 -11 -22 -17 -19 -5
4 -7 15 -4 25 8 26 -20 32 -41 9 -9 -10 -25 -19 -36 -19 -10 0 -18 -3 -18 -7
0 -8 -38 -14 -102 -16 -21 -1 -38 -5 -38 -10 0 -4 -4 -5 -10 -2 -5 3 -10 1
-10 -5 0 -6 -4 -8 -10 -5 -5 3 -10 1 -10 -4 0 -14 6 -14 31 -1 14 8 19 7 19
-2 0 -9 3 -9 11 2 9 13 10 13 6 0 -2 -10 -17 -15 -43 -16 -68 -3 -72 -4 -89
-20 -8 -9 -22 -13 -30 -10 -8 3 -15 2 -15 -2 0 -5 -16 -16 -35 -25 -20 -9 -39
-25 -42 -34 -9 -23 -29 -44 -36 -36 -3 3 -43 -3 -89 -12 -46 -10 -93 -17 -105
-17 -13 1 -23 -4 -23 -12 0 -7 -7 -19 -16 -26 -24 -20 -14 -72 16 -87 38 -17
65 -20 63 -5 -2 6 3 12 10 12 8 0 7 3 -3 10 -29 18 4 25 141 28 129 3 138 2
132 -15 -3 -10 -12 -25 -20 -34 -18 -21 -6 -30 25 -18 15 6 48 7 74 4 47 -7
49 -6 51 25 0 8 37 40 37 33 0 -5 4 -1 10 7 5 8 12 11 16 8 3 -4 -7 -19 -24
-33 -21 -17 -32 -38 -37 -66 -4 -23 -15 -45 -26 -52 -20 -13 -27 -57 -8 -57 6
0 16 14 22 30 14 36 27 39 27 6 0 -30 14 -40 38 -27 14 7 17 19 14 50 -2 23
-9 41 -15 41 -8 0 -8 3 -1 10 15 15 61 -4 69 -30 3 -11 11 -18 16 -14 6 3 17
-2 25 -12 14 -18 14 -18 7 0 -4 13 -3 17 5 12 7 -4 12 -1 12 10 0 13 -3 14
-15 4 -18 -15 -21 1 -5 31 10 18 41 21 56 6 15 -15 42 -6 47 15 4 12 9 19 13
15 4 -3 15 -2 25 4 15 7 24 5 41 -10 11 -11 25 -18 30 -15 5 3 16 0 24 -7 12
-10 13 -9 9 4 -8 19 5 27 30 16 11 -4 16 -8 10 -8 -14 -1 -18 -78 -5 -86 14
-9 40 13 40 33 0 8 -7 23 -15 32 -14 15 -14 20 4 41 16 19 20 20 21 8 0 -9 8
-23 18 -30 15 -13 16 -12 4 3 -9 11 -10 18 -2 23 16 10 12 25 -5 19 -10 -4
-15 0 -15 13 0 22 38 26 58 6 10 -10 16 -9 31 5 9 9 15 23 13 31 -3 8 -1 12 5
8 6 -4 16 7 24 24 l12 31 18 -33 c10 -19 18 -29 18 -24 1 6 -3 16 -8 24 -6 9
-2 20 10 32 19 19 108 49 146 49 16 0 22 4 17 11 -4 7 -1 10 7 7 8 -3 14 -10
14 -16 0 -5 4 -14 9 -19 5 -4 7 1 4 13 -7 27 1 39 31 49 21 6 23 5 17 -11 -5
-17 -5 -17 7 -2 8 10 31 17 57 19 25 2 53 8 62 13 12 7 21 7 28 0 7 -7 26 -8
48 -4 107 19 226 -2 378 -67 32 -13 94 -75 94 -93 0 -16 13 -12 43 14 25 22
28 29 22 58 -10 46 -14 49 -36 38 -16 -9 -19 -7 -19 9 0 15 5 19 16 14 13 -5
15 -2 9 18 -9 29 -6 25 -30 33 -17 5 -23 0 -30 -26 -6 -17 -17 -33 -25 -36
-10 -2 -11 -1 -4 5 14 10 27 76 14 68 -5 -3 -7 0 -5 7 3 8 -8 21 -27 33 -18
10 -39 27 -46 37 -7 10 -17 18 -22 18 -16 0 -41 -32 -36 -46 3 -7 1 -16 -4
-19 -6 -4 -10 7 -10 23 0 25 -7 34 -42 52 -24 12 -45 26 -49 31 -3 5 -19 4
-36 -3 -28 -10 -30 -14 -23 -45 5 -18 4 -33 0 -33 -4 0 -10 18 -14 40 -4 25
-12 40 -21 41 -8 1 -19 2 -25 3 -5 0 -15 10 -23 20 -11 15 -21 17 -48 12 -34
-6 -34 -6 -32 -58 2 -50 1 -51 -6 -13 -3 22 -10 46 -14 53 -10 14 -37 16 -37
2 0 -19 -17 -10 -28 14 -8 18 -18 24 -34 22 -51 -6 -57 -14 -53 -69 4 -46 3
-47 -3 -12 -4 22 -11 46 -15 53 -12 18 -27 15 -27 -5 -1 -13 -5 -10 -16 10 -8
15 -18 27 -21 27 -15 0 -78 -26 -84 -34 -4 -5 -10 1 -14 13 -3 12 -15 21 -26
21 -20 0 -26 -15 -9 -25 13 -8 3 -25 -16 -25 -8 0 -14 7 -14 15 0 9 -9 15 -21
15 -18 0 -19 2 -9 15 9 10 9 15 1 15 -6 0 -11 -4 -11 -10 0 -5 -8 -10 -17 -10
-12 0 -14 -3 -7 -8 9 -5 8 -11 -2 -20 -12 -11 -14 -5 -15 35 l-1 48 -11 -38
c-7 -21 -15 -38 -19 -38 -5 1 -18 1 -30 1 -12 0 -19 3 -15 6 6 7 -19 64 -29
64 -2 0 0 -9 6 -19z"/>
<path d="M2180 951 c0 -21 -53 -59 -117 -84 -49 -19 -57 -8 -20 31 l22 24 -25
-7 c-14 -4 -36 -18 -51 -31 -25 -24 -45 -32 -34 -14 7 12 -77 -24 -122 -52
-23 -13 -33 -27 -33 -44 0 -14 4 -23 9 -20 5 3 11 -4 14 -16 6 -21 7 -21 26
-4 19 17 19 17 14 -3 -3 -14 -1 -21 8 -22 8 0 5 -4 -6 -9 -16 -7 -16 -9 -4 -9
20 -1 33 -28 16 -35 -7 -2 -4 -5 6 -5 9 -1 17 -7 17 -15 0 -22 19 -30 36 -16
12 11 14 9 12 -11 -2 -15 2 -23 10 -21 6 1 12 -7 12 -18 0 -14 -7 -20 -22 -20
-38 0 -50 -14 -46 -56 3 -41 31 -65 97 -84 29 -8 33 -6 62 36 17 25 28 51 26
58 -3 7 -26 19 -51 26 -25 7 -46 17 -46 21 0 5 36 9 80 9 44 0 80 4 80 9 0 5
-17 21 -37 36 -54 40 -65 55 -52 72 6 7 15 10 20 7 5 -3 9 0 9 6 0 6 5 8 12 4
8 -5 9 -2 5 9 -3 10 -3 17 2 17 4 0 13 11 19 25 14 29 6 32 -22 8 -20 -18 -20
-18 -4 7 9 14 21 24 26 23 5 -1 22 27 37 62 15 36 31 63 35 60 9 -6 20 19 20
46 0 12 -7 19 -20 19 -13 0 -20 -7 -20 -19z"/>
<path d="M919 545 c-3 -2 -41 -5 -85 -6 -44 -1 -104 -7 -132 -12 l-52 -11 1
-40 c2 -68 12 -90 56 -114 35 -19 56 -22 147 -23 121 0 140 9 203 94 19 26 36
47 38 47 2 0 -12 -31 -31 -69 -19 -38 -34 -75 -34 -81 0 -9 73 -10 303 -6 483
10 691 17 700 25 15 14 -5 40 -38 51 -19 6 -51 22 -71 36 -20 14 -37 24 -39
22 -1 -2 -14 -23 -28 -48 -32 -54 -33 -51 -7 25 11 32 20 60 20 62 0 1 -17 3
-39 3 -49 0 -63 -17 -60 -74 2 -25 -1 -49 -5 -53 -4 -4 -7 21 -6 57 4 113 -12
136 -62 92 -19 -16 -25 -3 -8 14 6 6 3 10 -9 10 -11 0 -17 -4 -15 -8 3 -4 1
-8 -5 -8 -5 0 -14 -12 -19 -27 -6 -16 -11 -22 -11 -15 -1 6 -11 12 -23 13 -15
0 -18 2 -8 6 8 3 22 13 31 23 15 15 14 16 -21 16 -35 0 -38 -2 -36 -27 2 -23
-4 -31 -36 -45 -41 -18 -44 -24 -28 -55 19 -35 4 -20 -40 41 l-44 60 -46 -6
c-28 -4 -65 0 -95 8 -35 11 -68 13 -110 8 -33 -4 -64 -5 -70 -2 -5 3 -29 5
-53 3 -30 -2 -42 1 -38 8 4 6 0 11 -9 11 -9 0 -13 -4 -10 -10 3 -5 0 -8 -7 -6
-30 10 -65 15 -69 11z"/>
<path d="M2172 455 c-56 -53 -102 -101 -102 -106 0 -5 13 -9 29 -9 23 0 38
-10 67 -46 33 -40 41 -45 73 -42 l36 3 9 128 c13 191 12 192 -112 72z"/>
<path d="M375 452 c11 -120 29 -215 42 -219 6 -2 25 16 43 41 l31 46 101 0
100 0 -17 28 c-10 15 -29 40 -44 57 -14 16 -18 23 -8 16 16 -12 17 -9 17 48 0
57 -2 61 -22 61 -33 0 -68 -11 -68 -20 0 -5 12 -23 27 -42 18 -22 11 -18 -23
15 -49 47 -50 47 -118 47 l-67 0 6 -78z"/>
</g>
</svg>
